<svg viewBox="0 0 1024 1024" version="1.1" xmlns="http://www.w3.org/2000/svg">
    <path d="M512 512m-430 0a430 430 0 1 0 860 0 430 430 0 1 0-860 0Z" fill="#ffffff"></path>
    <path
        d="M508.33 821.51c-168.27 0-304.67-136.4-304.67-304.67s136.41-304.66 304.67-304.66S813 348.58 813 516.85 676.6 821.52 508.33 821.52z m-33.09-317.83c7.31-25.59 32.75-46.95 60.63-50.21 5.7 21.14 11.82 41.83 16.6 62.85 1.61 7.01 1.13 15.08-0.55 22.15-6.49 27.18-38.02 37.84-60.26 20.87-16.15-12.34-22.61-34.12-16.42-55.66z m116.29-6c-3.81-14.17-7.8-28.24-11.97-43.26 15.23 3.96 27.66 10.97 38.24 21.27 38.3 37.2 42.2 100.54 8.96 144.14-34.58 45.4-96.12 65.02-153.19 48.9-70.13-19.8-116.02-89.94-104.84-161.96 8.35-53.86 38.69-91.52 88.35-113.73 12.4-5.54 17.67-17.06 12.8-28.33-4.78-11.09-16.45-15.36-28.76-10.45-82.9 33.18-131.62 125.95-111.81 212.87 21.72 94.99 106.48 157.3 203.36 148.04 52.77-5.03 96.4-28.88 128.45-71.5 45.88-60.99 39.52-145.72-14.11-198-20.29-19.8-44.82-31.01-72.82-35.13-2.53-0.4-6.61-1.58-7.07-3.23-2.65-9.54-5.48-19.25-6.28-29.07-0.88-10.88 8.84-19.5 19.8-19.65 7.71-0.09 13.22 3.96 18.37 9.14 9.23 9.14 21.45 9.81 30.1 1.89 8.84-8.04 9.02-20.66 0.55-30.71-17.24-20.47-48.32-27.15-74.03-15.93-25.81 11.27-40.25 36.16-36.56 63.77 1.16 8.53 3.35 16.97 5.09 25.65l-7.92 2.19a117.7 117.7 0 0 0-63.92 43.08c-28.06 37.17-28.52 86.16-1.25 120.25 38.81 48.56 114.16 39.12 137.8-17.31 8.65-20.6 8.38-41.68 2.65-62.91z"
        fill="#E00000"></path>
</svg>